#N canvas 0 0 944 982 10;
#N canvas 475 437 395 449 network 0;
#X msg 25 113 listen 3000;
#X msg 58 150 listen 0;
#X obj 25 86 loadbang;
#X text 144 151 <- Stop listeneing;
#X text 142 113 <- Start listeneing on port 3000;
#X text 24 17 This is the default gdx-pd remote configuration.;
#X text 24 34 All server/client are automatically started;
#X obj 25 226 oscparse;
#X obj 25 253 list trim;
#X obj 25 303 list split 1;
#X obj 25 371 list;
#X obj 25 335 t b s;
#X obj 32 395 send;
#X obj 25 200 netreceive -b -u;
#X obj 25 277 route send;
#X connect 0 0 13 0;
#X connect 1 0 13 0;
#X connect 2 0 0 0;
#X connect 7 0 8 0;
#X connect 8 0 14 0;
#X connect 9 0 11 0;
#X connect 9 1 10 1;
#X connect 10 0 12 0;
#X connect 11 0 10 0;
#X connect 11 1 12 1;
#X connect 13 0 7 0;
#X connect 14 0 9 0;
#X restore 24 61 pd network;
#X obj 427 111 r chest;
#X obj 427 174 unpack f f f f f;
#X floatatom 394 209 5 0 0 0 - - -, f 5;
#X obj 454 208 pack f f f;
#X floatatom 555 210 5 0 0 0 - - -, f 5;
#X obj 1140 102 r water;
#X obj 1517 99 r move;
#X obj 1303 97 r altitude;
#X floatatom 1303 119 5 0 0 0 - - -, f 5;
#X floatatom 1140 124 5 0 0 0 - - -, f 5;
#X floatatom 1517 195 5 0 0 0 - - -, f 5;
#X floatatom 1583 194 5 0 0 0 - - -, f 5;
#X floatatom 1650 193 5 0 0 0 - - -, f 5;
#X obj 1469 178 bng 15 250 50 0 empty empty empty 17 7 0 10 -262144
-1 -1;
#X obj 1563 195 bng 15 250 50 0 empty empty empty 17 7 0 10 -262144
-1 -1;
#X obj 1632 195 bng 15 250 50 0 empty empty empty 17 7 0 10 -262144
-1 -1;
#X obj 1517 143 route walking swimming diving;
#X text 202 22 Map toggle : 0 off 1 on, f 12;
#X text 12 19 network listener do not remove, f 16;
#X text 481 18 3 nearset chest : seed (0 to 1) \, index (0 \, 1 \,
2) \, position (x \, y \, z) \, occlusion (0 to 1), f 19;
#X text 706 27 camera : position (x \, y \, z) \, direction (x \, y
\, z) \, head-up (x \, y \, z), f 19;
#X text 1270 502 surrounding forest sensor (0 to 1), f 13;
#X text 1108 35 surrounding water sensor (0 to 1), f 13;
#X text 1289 29 ground altitude at camera position relative to water
level (in meters), f 18;
#X text 1522 29 player status (walking \, swimming or diving) and velocity
(in meters per seconds), f 25;
#X obj 727 117 camera-vectors;
#X obj 1517 121 list trim;
#X obj 427 142 route 0 1 2;
#X obj 1478 635 piano;
#X obj 454 230 vec3;
#X obj 663 163 vec3;
#X obj 766 163 vec3;
#X obj 868 163 vec3;
#X obj 1162 908 dac~;
#X obj 1056 585 tgl 15 0 empty empty empty 17 7 0 10 -262144 -1 -1
1 1;
#N canvas 0 0 944 982 cube 0;
#X obj 179 454 inlet;
#X obj 427 111 r chest;
#X obj 427 174 unpack f f f f f;
#X floatatom 394 209 5 0 0 0 - - -, f 5;
#X obj 454 208 pack f f f;
#X floatatom 555 210 5 0 0 0 - - -, f 5;
#X text 706 27 camera : position (x \, y \, z) \, direction (x \, y
\, z) \, head-up (x \, y \, z), f 19;
#X obj 727 117 camera-vectors;
#X obj 427 142 route 0 1 2;
#X obj 592 254 vec3/sub;
#X obj 526 325 vec3/len;
#X obj 521 349 norm 0 10;
#X obj 512 375 clip 0 1;
#X obj 634 524 *~;
#X obj 613 397 expr 1 - $f1;
#X obj 705 359 vec3/nor;
#X obj 908 338 vec3/crs;
#X obj 454 230 vec3;
#X obj 663 163 vec3;
#X obj 766 163 vec3;
#X obj 868 163 vec3;
#X obj 794 374 vec3/dot;
#X obj 561 497 *~;
#X obj 716 488 *~;
#X obj 711 528 *~;
#X obj 282 430 sampler1~ samples/russian_anthem.wav 48000;
#X msg 200 311 stop;
#X obj 808 400 * 0.5;
#X obj 795 433 + 0.5;
#X obj 818 462 expr 1-$f1;
#X text 584 547 cube sound L R;
#X obj 711 291 vec3;
#X obj 289 259 loadbang;
#X obj 659 640 outlet~;
#X obj 575 636 outlet~;
#X obj 342 489 *~;
#X obj 172 553 oscilloscope;
#X msg 262 317 loop 0 80 1;
#X connect 0 0 35 0;
#X connect 1 0 8 0;
#X connect 2 0 3 0;
#X connect 2 1 4 0;
#X connect 2 2 4 1;
#X connect 2 3 4 2;
#X connect 2 4 5 0;
#X connect 4 0 17 0;
#X connect 7 0 18 0;
#X connect 7 1 19 0;
#X connect 7 2 20 0;
#X connect 8 0 2 0;
#X connect 9 0 10 0;
#X connect 9 0 15 0;
#X connect 9 0 31 0;
#X connect 10 0 11 0;
#X connect 11 0 12 0;
#X connect 12 0 14 0;
#X connect 13 0 34 0;
#X connect 14 0 24 0;
#X connect 14 0 13 1;
#X connect 15 0 21 0;
#X connect 16 0 21 1;
#X connect 17 0 9 0;
#X connect 18 0 9 1;
#X connect 19 0 16 1;
#X connect 20 0 16 0;
#X connect 21 0 27 0;
#X connect 22 0 13 0;
#X connect 23 0 24 1;
#X connect 24 0 33 0;
#X connect 25 0 35 1;
#X connect 25 0 36 0;
#X connect 26 0 25 0;
#X connect 27 0 28 0;
#X connect 28 0 29 0;
#X connect 28 0 22 1;
#X connect 29 0 23 1;
#X connect 32 0 37 0;
#X connect 35 0 22 0;
#X connect 35 0 23 0;
#X connect 37 0 25 0;
#X restore 1056 611 pd cube rouge;
#N canvas 0 50 1920 998 carte 0;
#X obj 206 76 r map;
#X obj 298 166 bng 15 250 50 0 empty empty empty 17 7 0 10 -262144
-1 -1;
#X obj 204 98 tgl 15 0 empty empty empty 17 7 0 10 -262144 -1 -1 0
1;
#X obj 201 127 select 0 1;
#X obj 101 168 bng 15 250 50 0 empty empty empty 17 7 0 10 -262144
-1 -1;
#X obj 88 254 line;
#X obj 161 201 delay 100;
#X obj 148 240 0 50;
#X obj 103 350 *~;
#X obj 163 315 delay 150;
#X msg 169 350 0;
#X msg 130 313 1, f 1;
#X obj 85 308 osc~;
#X msg 19 201 110 \, 70 140;
#X msg 225 230 stop;
#X msg 287 236 play 0 100 1;
#X obj 209 284 sampler1~ samples/carte.wav 48000;
#X obj 541 378 inlet;
#X obj 324 429 *~;
#X obj 149 440 *~;
#X obj 245 529 outlet~;
#X connect 0 0 2 0;
#X connect 1 0 15 0;
#X connect 2 0 3 0;
#X connect 3 0 4 0;
#X connect 3 1 1 0;
#X connect 4 0 13 0;
#X connect 4 0 6 0;
#X connect 4 0 9 0;
#X connect 4 0 11 0;
#X connect 5 0 12 0;
#X connect 6 0 7 0;
#X connect 7 0 5 0;
#X connect 8 0 19 0;
#X connect 9 0 10 0;
#X connect 10 0 8 1;
#X connect 11 0 8 1;
#X connect 12 0 8 0;
#X connect 13 0 5 0;
#X connect 14 0 16 0;
#X connect 15 0 16 0;
#X connect 16 0 18 0;
#X connect 17 0 18 1;
#X connect 17 0 19 1;
#X connect 18 0 20 0;
#X connect 19 0 20 0;
#X restore 984 612 pd carte;
#X obj 984 588 tgl 15 0 empty empty empty 17 7 0 10 -262144 -1 -1 1
1;
#N canvas 303 50 836 965 house 0;
#X obj 727 117 camera-vectors;
#X obj 663 163 vec3;
#X obj 766 163 vec3;
#X obj 868 163 vec3;
#X obj 682 343 vec3/sub;
#X obj 732 259 loadbang;
#X obj 727 384 vec3/nor;
#X obj 760 459 vec3/dot;
#X obj 878 295 vec3/crs;
#X obj 858 567 clip 0 1;
#X obj 813 600 *~ 1;
#X obj 659 576 clip 0 1;
#X obj 739 630 *~ 1;
#X floatatom 629 603 5 0 0 0 - - -, f 5;
#X floatatom 886 647 5 0 0 0 - - -, f 5;
#X msg 771 330 -1222 2 2300;
#X obj 933 387 sampler1~ samples/funny_music.wav 48000;
#X msg 996 350 loop 0 46 1;
#X obj 727 486 + 1;
#X obj 728 508 / 2;
#X obj 795 528 expr 1-$f1;
#X obj 1065 310 loadbang;
#X obj 718 813 outlet~;
#X obj 789 813 outlet~;
#X obj 728 763 *~;
#X obj 792 761 *~;
#X obj 768 708 inlet;
#X obj 1002 462 rev1~;
#X obj 1030 417 loadbang;
#X msg 1030 437 50;
#X obj 941 501 mix~;
#X obj 1392 313 vec3;
#X obj 1393 387 vec3/len;
#X floatatom 1445 418 5 0 0 0 - - -, f 5;
#X obj 1355 549 clip 0 1;
#X floatatom 1342 794 5 0 0 0 - - -, f 5;
#X floatatom 1426 478 5 0 0 0 - - -, f 5;
#X obj 1396 456 -;
#X msg 1452 444 20;
#X obj 1395 514 /;
#X msg 1484 483 40;
#X obj 1568 420 loadbang;
#X obj 1538 622 clip 0 1;
#X floatatom 1457 568 5 0 0 0 - - -, f 5;
#X obj 1513 534 -;
#X obj 1527 575 /;
#X msg 1635 517 40;
#X obj 970 562 *~;
#X obj 1387 666 expr 1 - $f1;
#X floatatom 1382 794 5 0 0 0 - - -, f 5;
#X msg 1686 541 50;
#X obj 951 674 oscilloscope;
#X connect 0 0 1 0;
#X connect 0 1 2 0;
#X connect 0 2 3 0;
#X connect 1 0 4 0;
#X connect 2 0 8 0;
#X connect 3 0 8 1;
#X connect 4 0 6 0;
#X connect 4 0 31 0;
#X connect 5 0 15 0;
#X connect 6 0 7 0;
#X connect 7 0 18 0;
#X connect 8 0 7 1;
#X connect 9 0 14 0;
#X connect 9 0 10 1;
#X connect 10 0 25 1;
#X connect 11 0 12 1;
#X connect 11 0 13 0;
#X connect 12 0 24 0;
#X connect 15 0 4 1;
#X connect 16 0 27 0;
#X connect 16 0 30 0;
#X connect 17 0 16 0;
#X connect 18 0 19 0;
#X connect 19 0 11 0;
#X connect 19 0 20 0;
#X connect 20 0 9 0;
#X connect 21 0 17 0;
#X connect 24 0 22 0;
#X connect 25 0 23 0;
#X connect 26 0 24 1;
#X connect 26 0 25 0;
#X connect 27 0 30 1;
#X connect 28 0 29 0;
#X connect 29 0 27 1;
#X connect 30 0 47 0;
#X connect 31 0 32 0;
#X connect 32 0 33 0;
#X connect 32 0 37 0;
#X connect 32 0 44 0;
#X connect 34 0 35 0;
#X connect 34 0 30 2;
#X connect 37 0 36 0;
#X connect 37 0 39 0;
#X connect 38 0 37 1;
#X connect 39 0 34 0;
#X connect 40 0 39 1;
#X connect 41 0 38 0;
#X connect 41 0 40 0;
#X connect 41 0 46 0;
#X connect 41 0 50 0;
#X connect 42 0 48 0;
#X connect 44 0 43 0;
#X connect 44 0 45 0;
#X connect 45 0 42 0;
#X connect 46 0 44 1;
#X connect 47 0 10 0;
#X connect 47 0 12 0;
#X connect 47 0 51 0;
#X connect 48 0 47 1;
#X connect 48 0 49 0;
#X connect 50 0 45 1;
#X restore 874 612 pd house music;
#X obj 874 590 tgl 15 0 empty empty empty 17 7 0 10 -262144 -1 -1 1
1;
#N canvas -8 -8 1920 998 walkswimdive 0;
#X obj 770 156 r move;
#X floatatom 770 252 5 0 0 0 - - -, f 5;
#X floatatom 836 251 5 0 0 0 - - -, f 5;
#X floatatom 903 250 5 0 0 0 - - -, f 5;
#X obj 722 235 bng 15 250 50 0 empty empty empty 17 7 0 10 -262144
-1 -1;
#X obj 816 252 bng 15 250 50 0 empty empty empty 17 7 0 10 -262144
-1 -1;
#X obj 886 255 bng 15 250 50 0 empty empty empty 17 7 0 10 -262144
-1 -1;
#X obj 770 200 route walking swimming diving;
#X text 187 72 player status (walking \, swimming or diving) and velocity
(in meters per seconds), f 25;
#X obj 770 178 list trim;
#X msg 652 556 1;
#X msg 682 555 0;
#X msg 710 555 0;
#X msg 890 553 0;
#X msg 920 554 1;
#X msg 953 553 0;
#X msg 1081 553 0, f 1;
#X msg 1097 553 0;
#X msg 1127 554 1;
#X obj 906 830 +~;
#X obj 946 955 outlet~;
#X obj 1098 839 inlet;
#X obj 946 910 *~;
#X obj 911 856 +~;
#X obj 1303 97 r altitude;
#X floatatom 1303 119 5 0 0 0 - - -, f 5;
#X obj 1303 97 r altitude;
#X floatatom 1303 119 5 0 0 0 - - -, f 5;
#X obj 1303 97 r altitude;
#X floatatom 1303 119 5 0 0 0 - - -, f 5;
#N canvas 540 135 1218 756 marche 0;
#X obj 275 73 inlet;
#X obj 356 75 inlet;
#X obj 124 515 outlet~;
#X floatatom 271 109 5 0 0 0 - - -, f 5;
#X obj 3 124 r altitude;
#X floatatom 3 159 5 0 0 0 - - -, f 5;
#X obj 3 185 <= 0;
#X floatatom 4 215 5 0 0 0 - - -, f 5;
#X obj 58 261 *;
#X obj 220 201 >= 1;
#X obj 64 314 *;
#X obj 63 422 *~;
#X obj 157 310 loadbang;
#X floatatom 217 228 5 0 0 0 - - -, f 5;
#X obj 103 397 sampler1~ samples/marcher_eau.wav 48000;
#X msg 146 360 loop 0 1.5 1;
#X obj 665 254 vmetro;
#X obj 665 276 random 1000;
#X obj 665 320 - 1;
#X obj 665 298 / 500;
#X obj 665 342 * 0.2;
#X obj 665 364 + 1;
#X obj 562 204 / 2.5;
#X obj 665 566 dac~;
#X obj 664 494 sampler1~ samples/marcher.wav 48000;
#X msg 665 394 play 0 1.2 1;
#X obj 585 25 r altitude;
#X floatatom 585 60 5 0 0 0 - - -, f 5;
#X floatatom 586 116 5 0 0 0 - - -, f 5;
#X obj 549 138 *;
#X obj 585 86 >= 0;
#X obj 403 252 vmetro;
#X obj 403 274 random 1000;
#X obj 403 318 - 1;
#X obj 403 296 / 500;
#X obj 403 340 * 0.2;
#X obj 403 362 + 1;
#X obj 403 564 dac~;
#X obj 441 155 <= 0;
#X obj 400 172 *;
#X obj 401 493 sampler1~ samples/marcher_eau.wav 48000;
#X obj 402 209 / 5;
#X msg 403 392 play 0 1.5 1;
#X obj 373 128 *;
#X connect 0 0 3 0;
#X connect 1 0 9 0;
#X connect 1 0 29 0;
#X connect 1 0 43 1;
#X connect 3 0 43 0;
#X connect 4 0 5 0;
#X connect 5 0 6 0;
#X connect 6 0 7 0;
#X connect 7 0 8 0;
#X connect 8 0 10 0;
#X connect 9 0 10 1;
#X connect 9 0 13 0;
#X connect 10 0 11 0;
#X connect 12 0 15 0;
#X connect 14 0 11 1;
#X connect 15 0 14 0;
#X connect 16 0 17 0;
#X connect 17 0 19 0;
#X connect 18 0 20 0;
#X connect 19 0 18 0;
#X connect 20 0 21 0;
#X connect 21 0 25 0;
#X connect 22 0 16 0;
#X connect 24 0 23 0;
#X connect 24 0 23 1;
#X connect 25 0 24 0;
#X connect 26 0 27 0;
#X connect 27 0 30 0;
#X connect 27 0 38 0;
#X connect 28 0 29 1;
#X connect 29 0 22 0;
#X connect 30 0 28 0;
#X connect 31 0 32 0;
#X connect 32 0 34 0;
#X connect 33 0 35 0;
#X connect 34 0 33 0;
#X connect 35 0 36 0;
#X connect 36 0 42 0;
#X connect 38 0 39 1;
#X connect 39 0 41 0;
#X connect 40 0 37 0;
#X connect 40 0 37 1;
#X connect 41 0 31 0;
#X connect 42 0 40 0;
#X connect 43 0 39 0;
#X restore 679 666 pd marche;
#N canvas 0 50 662 880 nage 0;
#X obj 321 3 inlet;
#X obj 318 251 outlet~;
#X obj 378 66 loadbang;
#X msg 367 116 loop 0 6.35 1;
#X obj 341 165 sampler1~ samples/plouf.wav 48000;
#X floatatom 320 65 5 0 0 0 - - -, f 5;
#X obj 321 213 *~;
#X connect 0 0 5 0;
#X connect 2 0 3 0;
#X connect 3 0 4 0;
#X connect 4 0 6 1;
#X connect 5 0 6 0;
#X connect 6 0 1 0;
#X restore 922 671 pd nage;
#N canvas 378 365 763 429 plonge 0;
#X obj 227 64 loadbang;
#X msg 218 133 loop 0 6.35 1;
#X obj 190 163 sampler1~ samples/bloup.wav 48000;
#X floatatom 127 89 5 0 0 0 - - -, f 5;
#X obj 127 181 *~;
#X obj 127 40 inlet;
#X obj 126 218 outlet~;
#X connect 0 0 1 0;
#X connect 1 0 2 0;
#X connect 2 0 4 1;
#X connect 3 0 4 0;
#X connect 4 0 6 0;
#X connect 5 0 3 0;
#X restore 1071 666 pd plonge;
#X connect 0 0 9 0;
#X connect 1 0 30 1;
#X connect 4 0 10 0;
#X connect 4 0 13 0;
#X connect 4 0 16 0;
#X connect 5 0 11 0;
#X connect 5 0 14 0;
#X connect 5 0 17 0;
#X connect 6 0 12 0;
#X connect 6 0 15 0;
#X connect 6 0 18 0;
#X connect 7 0 1 0;
#X connect 7 0 4 0;
#X connect 7 1 2 0;
#X connect 7 1 5 0;
#X connect 7 2 3 0;
#X connect 7 2 6 0;
#X connect 9 0 7 0;
#X connect 10 0 30 0;
#X connect 11 0 30 0;
#X connect 12 0 30 0;
#X connect 13 0 31 0;
#X connect 14 0 31 0;
#X connect 15 0 31 0;
#X connect 16 0 32 0;
#X connect 17 0 32 0;
#X connect 18 0 32 0;
#X connect 19 0 23 1;
#X connect 21 0 22 1;
#X connect 22 0 20 0;
#X connect 23 0 22 0;
#X connect 24 0 25 0;
#X connect 26 0 27 0;
#X connect 28 0 29 0;
#X connect 30 0 20 0;
#X connect 31 0 19 0;
#X connect 32 0 19 1;
#X restore 1159 612 pd walkswimdive;
#X obj 1159 589 tgl 15 0 empty empty empty 17 7 0 10 -262144 -1 -1
0 1;
#N canvas 372 432 450 300 water-fx 0;
#X obj 144 41 inlet~;
#X obj 143 205 outlet~;
#X obj 233 37 inlet;
#X obj 233 103 lop~ 2;
#X obj 233 81 lerp 8000 400;
#X obj 144 147 vcf~ 1;
#X connect 0 0 5 0;
#X connect 2 0 4 0;
#X connect 3 0 5 1;
#X connect 4 0 3 0;
#X connect 5 0 1 0;
#X restore 970 868 pd water-fx;
#N canvas 65 81 450 300 diving 0;
#X obj 179 59 r move;
#X obj 179 81 list trim;
#X obj 179 103 route diving;
#X msg 179 125 1;
#X msg 260 125 0;
#X obj 179 188 outlet;
#X connect 0 0 1 0;
#X connect 1 0 2 0;
#X connect 2 0 3 0;
#X connect 2 1 4 0;
#X connect 3 0 5 0;
#X connect 4 0 5 0;
#X restore 1017 843 pd diving;
#N canvas 372 432 450 300 water-fx 0;
#X obj 144 41 inlet~;
#X obj 143 205 outlet~;
#X obj 233 37 inlet;
#X obj 233 103 lop~ 2;
#X obj 233 81 lerp 8000 400;
#X obj 144 147 vcf~ 1;
#X connect 0 0 5 0;
#X connect 2 0 4 0;
#X connect 3 0 5 1;
#X connect 4 0 3 0;
#X connect 5 0 1 0;
#X restore 1288 870 pd water-fx;
#N canvas 65 81 450 300 diving 0;
#X obj 179 59 r move;
#X obj 179 81 list trim;
#X obj 179 103 route diving;
#X msg 179 125 1;
#X msg 260 125 0;
#X obj 179 188 outlet;
#X connect 0 0 1 0;
#X connect 1 0 2 0;
#X connect 2 0 3 0;
#X connect 2 1 4 0;
#X connect 3 0 5 0;
#X connect 4 0 5 0;
#X restore 1330 844 pd diving;
#X obj 874 562 loadbang;
#X obj 984 561 loadbang;
#X obj 1159 566 loadbang;
#X obj 1056 557 loadbang;
#N canvas 55 400 450 300 forest 0;
#X obj 197 44 r forest;
#X floatatom 197 66 5 0 0 0 - - -, f 5;
#X obj 92 148 *~;
#X obj 199 111 clip 0 1;
#X obj -48 -30 loadbang;
#X msg -61 1 loop 0 316 1;
#X obj -62 70 sampler1~ samples/Forest.wav 48000;
#X obj 103 202 *~;
#X obj 180 178 inlet;
#X obj 108 233 outlet~;
#X connect 0 0 1 0;
#X connect 1 0 3 0;
#X connect 2 0 7 0;
#X connect 3 0 2 1;
#X connect 4 0 5 0;
#X connect 5 0 6 0;
#X connect 6 0 2 0;
#X connect 7 0 9 0;
#X connect 8 0 7 1;
#X restore 1274 611 pd forest;
#X obj 1274 585 tgl 15 0 empty empty empty 17 7 0 10 -262144 -1 -1
1 1;
#X obj 1274 560 loadbang;
#X connect 1 0 28 0;
#X connect 2 0 3 0;
#X connect 2 1 4 0;
#X connect 2 2 4 1;
#X connect 2 3 4 2;
#X connect 2 4 5 0;
#X connect 4 0 30 0;
#X connect 6 0 10 0;
#X connect 7 0 27 0;
#X connect 8 0 9 0;
#X connect 17 0 11 0;
#X connect 17 0 14 0;
#X connect 17 1 12 0;
#X connect 17 1 15 0;
#X connect 17 2 13 0;
#X connect 17 2 16 0;
#X connect 26 0 31 0;
#X connect 26 1 32 0;
#X connect 26 2 33 0;
#X connect 27 0 17 0;
#X connect 28 0 2 0;
#X connect 35 0 36 0;
#X connect 36 0 43 0;
#X connect 36 1 45 0;
#X connect 37 0 43 0;
#X connect 38 0 37 0;
#X connect 39 0 43 0;
#X connect 39 1 45 0;
#X connect 40 0 39 0;
#X connect 41 0 43 0;
#X connect 41 0 45 0;
#X connect 42 0 41 0;
#X connect 43 0 34 0;
#X connect 44 0 43 1;
#X connect 45 0 34 1;
#X connect 46 0 45 1;
#X connect 47 0 40 0;
#X connect 48 0 38 0;
#X connect 49 0 42 0;
#X connect 50 0 35 0;
#X connect 51 0 45 0;
#X connect 51 0 43 0;
#X connect 52 0 51 0;
#X connect 53 0 52 0;
