#N canvas -8 -8 1366 685 10;
#N canvas 495 76 395 729 network 0;
#X msg 25 113 listen 3000;
#X msg 58 150 listen 0;
#X obj 25 86 loadbang;
#X text 144 151 <- Stop listeneing;
#X text 142 113 <- Start listeneing on port 3000;
#X text 24 17 This is the default gdx-pd remote configuration.;
#X text 24 34 All server/client are automatically started;
#X obj 25 226 oscparse;
#X obj 25 253 list trim;
#X obj 25 303 list split 1;
#X obj 25 371 list;
#X obj 25 335 t b s;
#X obj 32 395 send;
#X obj 25 200 netreceive -b -u;
#X obj 25 277 route send;
#X connect 0 0 13 0;
#X connect 1 0 13 0;
#X connect 2 0 0 0;
#X connect 7 0 8 0;
#X connect 8 0 14 0;
#X connect 9 0 11 0;
#X connect 9 1 10 1;
#X connect 10 0 12 0;
#X connect 11 0 10 0;
#X connect 11 1 12 1;
#X connect 13 0 7 0;
#X connect 14 0 9 0;
#X restore 24 61 pd network;
#X obj 427 111 r chest;
#X obj 427 174 unpack f f f f f;
#X floatatom 394 209 5 0 0 0 - - -;
#X obj 454 208 pack f f f;
#X floatatom 555 210 5 0 0 0 - - -;
#X obj 1140 102 r water;
#X obj 1517 99 r move;
#X obj 1263 167 r altitude;
#X floatatom 1263 188 5 0 0 0 - - -;
#X floatatom 1140 124 5 0 0 0 - - -;
#X floatatom 1517 195 5 0 0 0 - - -;
#X floatatom 1583 194 5 0 0 0 - - -;
#X floatatom 1650 193 5 0 0 0 - - -;
#X obj 1469 178 bng 15 250 50 0 empty empty empty 17 7 0 10 -262144
-1 -1;
#X obj 1563 195 bng 15 250 50 0 empty empty empty 17 7 0 10 -262144
-1 -1;
#X obj 1632 195 bng 15 250 50 0 empty empty empty 17 7 0 10 -262144
-1 -1;
#X obj 1517 143 route walking swimming diving;
#X text 202 22 Map toggle : 0 off 1 on, f 12;
#X text 12 19 network listener do not remove, f 16;
#X text 481 18 3 nearset chest : seed (0 to 1) \, index (0 \, 1 \,
2) \, position (x \, y \, z) \, occlusion (0 to 1), f 19;
#X text 706 27 camera : position (x \, y \, z) \, direction (x \, y
\, z) \, head-up (x \, y \, z), f 19;
#X text 1108 35 surrounding water sensor (0 to 1), f 13;
#X text 1289 29 ground altitude at camera position relative to water
level (in meters), f 18;
#X text 1522 29 player status (walking \, swimming or diving) and velocity
(in meters per seconds), f 25;
#X obj 727 117 camera-vectors;
#X obj 1517 121 list trim;
#X obj 427 142 route 0 1 2;
#X obj 1478 635 piano;
#X obj 454 230 vec3;
#X obj 663 163 vec3;
#X obj 766 163 vec3;
#X obj 868 163 vec3;
#X obj 1162 908 dac~;
#X obj 1056 585 tgl 15 0 empty empty empty 17 7 0 10 -262144 -1 -1
1 1;
#N canvas -8 -8 1366 685 cube 0;
#X obj 228 468 inlet;
#X obj 427 111 r chest;
#X obj 427 174 unpack f f f f f;
#X floatatom 394 209 5 0 0 0 - - -;
#X obj 454 208 pack f f f;
#X floatatom 555 210 5 0 0 0 - - -;
#X text 706 27 camera : position (x \, y \, z) \, direction (x \, y
\, z) \, head-up (x \, y \, z), f 19;
#X obj 727 117 camera-vectors;
#X obj 427 142 route 0 1 2;
#X obj 615 327 vec3/sub;
#X obj 615 369 vec3/len;
#X obj 615 391 norm 0 10;
#X obj 615 417 clip 0 1;
#X obj 557 541 *~;
#X obj 615 442 expr 1 - $f1;
#X obj 799 377 vec3/nor;
#X obj 887 352 vec3/crs;
#X obj 454 230 vec3;
#X obj 663 163 vec3;
#X obj 766 163 vec3;
#X obj 868 163 vec3;
#X obj 799 399 vec3/dot;
#X obj 556 516 *~;
#X obj 682 516 *~;
#X obj 667 543 *~;
#X obj 173 407 sampler1~ samples/russian_anthem.wav 48000;
#X msg 125 361 stop;
#X obj 799 424 * 0.5;
#X obj 799 450 + 0.5;
#X obj 799 474 expr 1-$f1;
#X text 584 547 cube sound L R;
#X obj 173 356 loadbang;
#X obj 669 658 outlet~;
#X obj 559 647 outlet~;
#X obj 342 489 *~;
#X obj 172 553 oscilloscope;
#X msg 173 380 loop 0 75 1;
#X obj 929 477 vec3/dot;
#X obj 929 502 clip 0 1;
#X obj 1017 569 *~;
#X obj 1128 472 sampler1~ samples/viens.wav 48000;
#X obj 1128 305 vmetro;
#X obj 1128 327 random 1000;
#X obj 1128 371 - 1;
#X obj 1128 349 / 500;
#X obj 1128 415 + 1;
#X obj 1215 591 rev1~;
#X obj 1216 523 loadbang;
#X msg 1216 543 50;
#X obj 1280 521 vmetro;
#X obj 1280 543 random 1000;
#X obj 1280 565 / 1000;
#X obj 1180 644 mix~;
#X obj 1128 393 * 0.1;
#X msg 1128 446 play 0 4 \$1;
#X obj 1111 176 >= 10;
#X obj 1103 208 select 0 1;
#X msg 1103 240 0;
#X msg 1134 240 0.2;
#X obj 1181 234 r map;
#X obj 1179 256 tgl 15 0 empty empty empty 17 7 0 10 -262144 -1 -1
0 1;
#X obj 1128 282 *;
#X floatatom 929 523 5 0 0 0 - - -;
#X connect 0 0 34 0;
#X connect 1 0 8 0;
#X connect 2 0 3 0;
#X connect 2 1 4 0;
#X connect 2 2 4 1;
#X connect 2 3 4 2;
#X connect 2 4 5 0;
#X connect 4 0 17 0;
#X connect 7 0 18 0;
#X connect 7 1 19 0;
#X connect 7 2 20 0;
#X connect 8 0 2 0;
#X connect 9 0 10 0;
#X connect 9 0 15 0;
#X connect 10 0 11 0;
#X connect 10 0 55 0;
#X connect 11 0 12 0;
#X connect 12 0 14 0;
#X connect 13 0 33 0;
#X connect 14 0 24 0;
#X connect 14 0 13 1;
#X connect 15 0 21 0;
#X connect 15 0 37 0;
#X connect 16 0 21 1;
#X connect 17 0 9 0;
#X connect 18 0 9 1;
#X connect 19 0 16 1;
#X connect 19 0 37 1;
#X connect 20 0 16 0;
#X connect 21 0 27 0;
#X connect 22 0 13 0;
#X connect 23 0 24 1;
#X connect 24 0 32 0;
#X connect 25 0 34 1;
#X connect 25 0 35 0;
#X connect 26 0 25 0;
#X connect 27 0 28 0;
#X connect 28 0 29 0;
#X connect 28 0 22 1;
#X connect 29 0 23 1;
#X connect 31 0 36 0;
#X connect 34 0 22 0;
#X connect 34 0 23 0;
#X connect 36 0 25 0;
#X connect 37 0 38 0;
#X connect 38 0 39 0;
#X connect 38 0 62 0;
#X connect 39 0 32 0;
#X connect 39 0 33 0;
#X connect 40 0 46 0;
#X connect 40 0 52 0;
#X connect 41 0 42 0;
#X connect 42 0 44 0;
#X connect 43 0 53 0;
#X connect 44 0 43 0;
#X connect 45 0 54 0;
#X connect 46 0 52 1;
#X connect 47 0 48 0;
#X connect 48 0 46 1;
#X connect 49 0 50 0;
#X connect 50 0 51 0;
#X connect 51 0 52 2;
#X connect 52 0 39 1;
#X connect 53 0 45 0;
#X connect 54 0 40 0;
#X connect 55 0 56 0;
#X connect 56 0 57 0;
#X connect 56 1 58 0;
#X connect 57 0 61 0;
#X connect 58 0 61 0;
#X connect 59 0 60 0;
#X connect 60 0 61 1;
#X connect 61 0 41 0;
#X restore 1056 611 pd cube rouge;
#N canvas 676 0 681 676 carte 0;
#X obj 206 76 r map;
#X obj 298 166 bng 15 250 50 0 empty empty empty 17 7 0 10 -262144
-1 -1;
#X obj 204 98 tgl 15 0 empty empty empty 17 7 0 10 -262144 -1 -1 0
1;
#X obj 201 127 select 0 1;
#X obj 101 168 bng 15 250 50 0 empty empty empty 17 7 0 10 -262144
-1 -1;
#X obj 88 254 line;
#X obj 161 201 delay 100;
#X obj 148 240 0 50;
#X obj 103 350 *~;
#X obj 163 315 delay 150;
#X msg 169 350 0;
#X msg 130 313 1, f 1;
#X obj 85 308 osc~;
#X msg 19 201 110 \, 70 140;
#X msg 225 230 stop;
#X msg 287 236 play 0 100 1;
#X obj 209 284 sampler1~ samples/carte.wav 48000;
#X obj 541 378 inlet;
#X obj 324 429 *~;
#X obj 149 440 *~;
#X obj 245 529 outlet~;
#X connect 0 0 2 0;
#X connect 1 0 15 0;
#X connect 2 0 3 0;
#X connect 3 0 4 0;
#X connect 3 1 1 0;
#X connect 4 0 13 0;
#X connect 4 0 6 0;
#X connect 4 0 9 0;
#X connect 4 0 11 0;
#X connect 5 0 12 0;
#X connect 6 0 7 0;
#X connect 7 0 5 0;
#X connect 8 0 19 0;
#X connect 9 0 10 0;
#X connect 10 0 8 1;
#X connect 11 0 8 1;
#X connect 12 0 8 0;
#X connect 13 0 5 0;
#X connect 14 0 16 0;
#X connect 15 0 16 0;
#X connect 16 0 18 0;
#X connect 17 0 18 1;
#X connect 17 0 19 1;
#X connect 18 0 20 0;
#X connect 19 0 20 0;
#X restore 984 612 pd carte;
#X obj 984 588 tgl 15 0 empty empty empty 17 7 0 10 -262144 -1 -1 1
1;
#N canvas -8 -8 1366 685 house 0;
#X obj 727 117 camera-vectors;
#X obj 663 163 vec3;
#X obj 766 163 vec3;
#X obj 868 163 vec3;
#X obj 682 343 vec3/sub;
#X obj 732 259 loadbang;
#X obj 727 384 vec3/nor;
#X obj 760 459 vec3/dot;
#X obj 878 295 vec3/crs;
#X obj 858 567 clip 0 1;
#X obj 813 600 *~ 1;
#X obj 659 576 clip 0 1;
#X obj 739 630 *~ 1;
#X floatatom 629 603 5 0 0 0 - - -;
#X floatatom 886 647 5 0 0 0 - - -;
#X msg 771 330 -1222 2 2300;
#X obj 933 387 sampler1~ samples/funny_music.wav 48000;
#X msg 996 350 loop 0 46 1;
#X obj 727 486 + 1;
#X obj 728 508 / 2;
#X obj 795 528 expr 1-$f1;
#X obj 1065 310 loadbang;
#X obj 718 813 outlet~;
#X obj 789 813 outlet~;
#X obj 728 763 *~;
#X obj 792 761 *~;
#X obj 768 708 inlet;
#X obj 1002 462 rev1~;
#X obj 1030 417 loadbang;
#X msg 1030 437 50;
#X obj 941 501 mix~;
#X obj 1392 313 vec3;
#X obj 1393 387 vec3/len;
#X floatatom 1445 418 5 0 0 0 - - -;
#X obj 1355 549 clip 0 1;
#X floatatom 1342 794 5 0 0 0 - - -;
#X floatatom 1426 478 5 0 0 0 - - -;
#X obj 1396 456 -;
#X msg 1452 444 20;
#X obj 1395 514 /;
#X msg 1484 483 40;
#X obj 1568 420 loadbang;
#X obj 1538 622 clip 0 1;
#X floatatom 1457 568 5 0 0 0 - - -;
#X obj 1513 534 -;
#X obj 1527 575 /;
#X msg 1635 517 40;
#X obj 970 562 *~;
#X obj 1387 666 expr 1 - $f1;
#X floatatom 1382 794 5 0 0 0 - - -;
#X msg 1686 541 50;
#X obj 951 674 oscilloscope;
#X connect 0 0 1 0;
#X connect 0 1 2 0;
#X connect 0 2 3 0;
#X connect 1 0 4 0;
#X connect 2 0 8 0;
#X connect 3 0 8 1;
#X connect 4 0 6 0;
#X connect 4 0 31 0;
#X connect 5 0 15 0;
#X connect 6 0 7 0;
#X connect 7 0 18 0;
#X connect 8 0 7 1;
#X connect 9 0 14 0;
#X connect 9 0 10 1;
#X connect 10 0 25 1;
#X connect 11 0 12 1;
#X connect 11 0 13 0;
#X connect 12 0 24 0;
#X connect 15 0 4 1;
#X connect 16 0 27 0;
#X connect 16 0 30 0;
#X connect 17 0 16 0;
#X connect 18 0 19 0;
#X connect 19 0 11 0;
#X connect 19 0 20 0;
#X connect 20 0 9 0;
#X connect 21 0 17 0;
#X connect 24 0 22 0;
#X connect 25 0 23 0;
#X connect 26 0 24 1;
#X connect 26 0 25 0;
#X connect 27 0 30 1;
#X connect 28 0 29 0;
#X connect 29 0 27 1;
#X connect 30 0 47 0;
#X connect 31 0 32 0;
#X connect 32 0 33 0;
#X connect 32 0 37 0;
#X connect 32 0 44 0;
#X connect 34 0 35 0;
#X connect 34 0 30 2;
#X connect 37 0 36 0;
#X connect 37 0 39 0;
#X connect 38 0 37 1;
#X connect 39 0 34 0;
#X connect 40 0 39 1;
#X connect 41 0 38 0;
#X connect 41 0 40 0;
#X connect 41 0 46 0;
#X connect 41 0 50 0;
#X connect 42 0 48 0;
#X connect 44 0 43 0;
#X connect 44 0 45 0;
#X connect 45 0 42 0;
#X connect 46 0 44 1;
#X connect 47 0 10 0;
#X connect 47 0 12 0;
#X connect 47 0 51 0;
#X connect 48 0 47 1;
#X connect 48 0 49 0;
#X connect 50 0 45 1;
#X restore 874 612 pd house music;
#X obj 874 590 tgl 15 0 empty empty empty 17 7 0 10 -262144 -1 -1 1
1;
#N canvas -8 -8 1366 685 walkswimdive 0;
#X obj 770 156 r move;
#X floatatom 770 252 5 0 0 0 - - -;
#X floatatom 836 251 5 0 0 0 - - -;
#X floatatom 903 250 5 0 0 0 - - -;
#X obj 722 235 bng 15 250 50 0 empty empty empty 17 7 0 10 -262144
-1 -1;
#X obj 816 252 bng 15 250 50 0 empty empty empty 17 7 0 10 -262144
-1 -1;
#X obj 886 255 bng 15 250 50 0 empty empty empty 17 7 0 10 -262144
-1 -1;
#X obj 770 200 route walking swimming diving;
#X text 187 72 player status (walking \, swimming or diving) and velocity
(in meters per seconds), f 25;
#X obj 770 178 list trim;
#X msg 652 556 1;
#X msg 682 555 0;
#X msg 710 555 0;
#X msg 890 553 0;
#X msg 920 554 1;
#X msg 953 553 0;
#X msg 1081 553 0, f 1;
#X msg 1097 553 0;
#X msg 1127 554 1;
#X obj 906 830 +~;
#X obj 946 955 outlet~;
#X obj 1098 839 inlet;
#X obj 946 910 *~;
#X obj 911 856 +~;
#X obj 1303 97 r altitude;
#X floatatom 1303 119 5 0 0 0 - - -;
#X obj 1303 97 r altitude;
#X floatatom 1303 119 5 0 0 0 - - -;
#X obj 1303 97 r altitude;
#X floatatom 1303 119 5 0 0 0 - - -;
#N canvas -8 -8 1366 685 marche 0;
#X obj 374 42 inlet;
#X obj 466 72 inlet;
#X obj 457 573 outlet~;
#X floatatom 370 78 5 0 0 0 - - -;
#X obj 661 256 vmetro;
#X obj 661 278 random 1000;
#X obj 661 322 - 1;
#X obj 661 300 / 500;
#X obj 661 344 * 0.2;
#X obj 661 366 + 1;
#X floatatom 585 60 5 0 0 0 - - -;
#X floatatom 586 116 5 0 0 0 - - -;
#X obj 570 148 *;
#X obj 403 252 vmetro;
#X obj 403 274 random 1000;
#X obj 403 318 - 1;
#X obj 403 340 * 0.2;
#X obj 403 362 + 1;
#X obj 400 172 *;
#X obj 401 493 sampler1~ samples/marcher_eau.wav 48000;
#X obj 373 128 *;
#X obj 403 296 / 500;
#X obj 402 209 / 7;
#X obj 552 -55 camera-vectors;
#X obj 551 -33 vec3;
#X obj 665 499 sampler1~ samples/marcher.wav 48000;
#X obj 649 212 / 3;
#X obj 551 39 unpack f f f;
#X obj 441 155 <= 0.3;
#X obj 585 86 >= 0.3;
#X obj 830 53 r forest;
#X floatatom 830 75 5 0 0 0 - - -;
#X obj 837 144 >= 0.5;
#X obj 726 145 <= 0.5;
#X obj 627 175 *;
#X msg 661 396 play 0 1.3 \$1;
#X obj 895 256 vmetro;
#X obj 895 278 random 1000;
#X obj 895 322 - 1;
#X obj 895 300 / 500;
#X obj 895 344 * 0.2;
#X obj 895 366 + 1;
#X obj 899 499 sampler1~ samples/feuilles.wav 48000;
#X floatatom 452 107 5 0 0 0 - - -;
#X obj 871 175 *;
#X obj 883 212 / 6;
#X msg 895 396 play 0 1.3 \$1;
#X msg 403 392 play 0 1.5 \$1;
#X connect 0 0 3 0;
#X connect 1 0 12 0;
#X connect 1 0 20 1;
#X connect 1 0 43 0;
#X connect 3 0 20 0;
#X connect 4 0 5 0;
#X connect 5 0 7 0;
#X connect 6 0 8 0;
#X connect 7 0 6 0;
#X connect 8 0 9 0;
#X connect 9 0 35 0;
#X connect 10 0 28 0;
#X connect 10 0 29 0;
#X connect 11 0 12 1;
#X connect 12 0 34 0;
#X connect 12 0 44 0;
#X connect 13 0 14 0;
#X connect 14 0 21 0;
#X connect 15 0 16 0;
#X connect 16 0 17 0;
#X connect 17 0 47 0;
#X connect 18 0 22 0;
#X connect 19 0 2 0;
#X connect 20 0 18 0;
#X connect 21 0 15 0;
#X connect 22 0 13 0;
#X connect 23 0 24 0;
#X connect 24 0 27 0;
#X connect 25 0 2 0;
#X connect 26 0 4 0;
#X connect 27 1 10 0;
#X connect 28 0 18 1;
#X connect 29 0 11 0;
#X connect 30 0 31 0;
#X connect 31 0 32 0;
#X connect 31 0 33 0;
#X connect 32 0 44 1;
#X connect 33 0 34 1;
#X connect 34 0 26 0;
#X connect 35 0 25 0;
#X connect 36 0 37 0;
#X connect 37 0 39 0;
#X connect 38 0 40 0;
#X connect 39 0 38 0;
#X connect 40 0 41 0;
#X connect 41 0 46 0;
#X connect 42 0 2 0;
#X connect 44 0 45 0;
#X connect 45 0 36 0;
#X connect 46 0 42 0;
#X connect 47 0 19 0;
#X restore 679 666 pd marche;
#N canvas 0 50 662 729 nage 0;
#X obj 321 3 inlet;
#X obj 318 251 outlet~;
#X obj 378 66 loadbang;
#X msg 367 116 loop 0 6.35 1;
#X obj 341 165 sampler1~ samples/plouf.wav 48000;
#X floatatom 320 65 5 0 0 0 - - -;
#X obj 321 213 *~;
#X connect 0 0 5 0;
#X connect 2 0 3 0;
#X connect 3 0 4 0;
#X connect 4 0 6 1;
#X connect 5 0 6 0;
#X connect 6 0 1 0;
#X restore 922 671 pd nage;
#N canvas -7 0 681 676 plonge 0;
#X obj 227 64 loadbang;
#X msg 218 133 loop 0 6.35 1;
#X obj 190 163 sampler1~ samples/bloup.wav 48000;
#X floatatom 127 89 5 0 0 0 - - -;
#X obj 127 181 *~;
#X obj 127 40 inlet;
#X obj 126 218 outlet~;
#X connect 0 0 1 0;
#X connect 1 0 2 0;
#X connect 2 0 4 1;
#X connect 3 0 4 0;
#X connect 4 0 6 0;
#X connect 5 0 3 0;
#X restore 1071 666 pd plonge;
#N canvas -7 0 681 676 plongeon 0;
#X obj 178 107 inlet;
#X obj 263 106 inlet;
#X text 175 83 marche;
#X text 265 75 nage;
#X obj 199 319 sampler1~ samples/plongeon.wav 48000;
#X msg 199 296 play 0 6.35 1;
#X obj 199 369 outlet~;
#X obj 419 433 bng 15 250 50 0 empty empty empty 17 7 0 10 -262144
-1 -1;
#X obj 408 551 bng 15 250 50 0 empty empty empty 17 7 0 10 -262144
-1 -1;
#X obj 415 478 delay 1000;
#X obj 165 286 bng 15 250 50 0 empty empty empty 17 7 0 10 -262144
-1 -1;
#X obj 192 246 delay 100;
#X connect 0 0 11 0;
#X connect 4 0 6 0;
#X connect 5 0 4 0;
#X connect 7 0 9 0;
#X connect 9 0 8 0;
#X connect 11 0 10 0;
#X connect 11 0 5 0;
#X restore 489 668 pd plongeon;
#X obj 898 883 +~;
#X floatatom 1073 384 5 0 0 0 - - -;
#X floatatom 677 595 5 0 0 0 - - -;
#X floatatom 921 601 5 0 0 0 - - -;
#X floatatom 1103 605 5 0 0 0 - - -;
#X connect 0 0 9 0;
#X connect 1 0 30 1;
#X connect 1 0 35 0;
#X connect 2 0 35 0;
#X connect 3 0 35 0;
#X connect 4 0 10 0;
#X connect 4 0 13 0;
#X connect 4 0 16 0;
#X connect 4 0 33 0;
#X connect 5 0 11 0;
#X connect 5 0 14 0;
#X connect 5 0 17 0;
#X connect 5 0 33 1;
#X connect 6 0 12 0;
#X connect 6 0 15 0;
#X connect 6 0 18 0;
#X connect 7 0 1 0;
#X connect 7 0 4 0;
#X connect 7 1 2 0;
#X connect 7 1 5 0;
#X connect 7 2 3 0;
#X connect 7 2 6 0;
#X connect 9 0 7 0;
#X connect 10 0 36 0;
#X connect 11 0 36 0;
#X connect 12 0 36 0;
#X connect 13 0 37 0;
#X connect 14 0 37 0;
#X connect 15 0 37 0;
#X connect 16 0 38 0;
#X connect 17 0 38 0;
#X connect 18 0 38 0;
#X connect 19 0 23 1;
#X connect 21 0 22 1;
#X connect 22 0 20 0;
#X connect 23 0 34 1;
#X connect 24 0 25 0;
#X connect 26 0 27 0;
#X connect 28 0 29 0;
#X connect 30 0 23 0;
#X connect 31 0 19 0;
#X connect 32 0 19 1;
#X connect 33 0 34 0;
#X connect 34 0 22 0;
#X connect 36 0 30 0;
#X connect 37 0 31 0;
#X connect 38 0 32 0;
#X restore 1159 612 pd walkswimdive;
#X obj 1159 589 tgl 15 0 empty empty empty 17 7 0 10 -262144 -1 -1
1 1;
#N canvas 372 432 450 300 water-fx 0;
#X obj 144 41 inlet~;
#X obj 143 205 outlet~;
#X obj 233 37 inlet;
#X obj 233 103 lop~ 2;
#X obj 233 81 lerp 8000 400;
#X obj 144 147 vcf~ 1;
#X connect 0 0 5 0;
#X connect 2 0 4 0;
#X connect 3 0 5 1;
#X connect 4 0 3 0;
#X connect 5 0 1 0;
#X restore 970 868 pd water-fx;
#N canvas 65 81 450 300 diving 0;
#X obj 179 59 r move;
#X obj 179 81 list trim;
#X obj 179 103 route diving;
#X msg 179 125 1;
#X msg 260 125 0;
#X obj 179 188 outlet;
#X connect 0 0 1 0;
#X connect 1 0 2 0;
#X connect 2 0 3 0;
#X connect 2 1 4 0;
#X connect 3 0 5 0;
#X connect 4 0 5 0;
#X restore 1017 843 pd diving;
#N canvas 347 310 450 300 water-fx 0;
#X obj 144 41 inlet~;
#X obj 143 205 outlet~;
#X obj 233 37 inlet;
#X obj 233 103 lop~ 2;
#X obj 233 81 lerp 8000 400;
#X obj 144 147 vcf~ 1;
#X connect 0 0 5 0;
#X connect 2 0 4 0;
#X connect 3 0 5 1;
#X connect 4 0 3 0;
#X connect 5 0 1 0;
#X restore 1288 870 pd water-fx;
#N canvas 65 81 450 300 diving 0;
#X obj 179 59 r move;
#X obj 179 81 list trim;
#X obj 179 103 route diving;
#X msg 179 125 1;
#X msg 260 125 0;
#X obj 179 188 outlet;
#X connect 0 0 1 0;
#X connect 1 0 2 0;
#X connect 2 0 3 0;
#X connect 2 1 4 0;
#X connect 3 0 5 0;
#X connect 4 0 5 0;
#X restore 1330 844 pd diving;
#X obj 874 562 loadbang;
#X obj 984 561 loadbang;
#X obj 1159 566 loadbang;
#X obj 1056 557 loadbang;
#N canvas 212 412 450 300 forest 0;
#X obj 197 44 r forest;
#X floatatom 197 66 5 0 0 0 - - -;
#X obj 92 148 *~;
#X obj -48 -30 loadbang;
#X obj -62 70 sampler1~ samples/Forest.wav 48000;
#X obj 103 202 *~;
#X obj 180 178 inlet;
#X obj 108 233 outlet~;
#X obj 199 111 clip 0 0.5;
#X msg -61 1 loop 0 60 1;
#X connect 0 0 1 0;
#X connect 1 0 8 0;
#X connect 2 0 5 0;
#X connect 3 0 9 0;
#X connect 4 0 2 0;
#X connect 5 0 7 0;
#X connect 6 0 5 1;
#X connect 8 0 2 1;
#X connect 9 0 4 0;
#X restore 1274 611 pd forest;
#X obj 1274 585 tgl 15 0 empty empty empty 17 7 0 10 -262144 -1 -1
0 1;
#X obj 1274 560 loadbang;
#X obj 1472 576 tgl 15 0 empty empty empty 17 7 0 10 -262144 -1 -1
0 1;
#N canvas 0 50 450 300 vent 1;
#X obj 67 28 r altitude;
#X floatatom 67 49 5 0 0 0 - - -;
#X obj 69 175 *~;
#X obj 99 125 sampler1~ samples/wind.wav 48000;
#X obj 75 209 outlet~;
#X obj 65 68 clip 10 25;
#X obj 65 92 - 10;
#X obj 65 118 / 15;
#X obj 230 54 select 0 1;
#X msg 112 96 stop;
#X obj 331 15 inlet;
#X msg 220 92 loop 0 9 1;
#X connect 0 0 1 0;
#X connect 1 0 5 0;
#X connect 2 0 4 0;
#X connect 3 0 2 1;
#X connect 5 0 6 0;
#X connect 6 0 7 0;
#X connect 7 0 2 0;
#X connect 8 0 9 0;
#X connect 8 1 11 0;
#X connect 9 0 3 0;
#X connect 10 0 8 0;
#X connect 11 0 3 0;
#X restore 810 612 pd vent;
#X obj 810 588 tgl 15 0 empty empty empty 17 7 0 10 -262144 -1 -1 1
1;
#X obj 810 561 loadbang;
#X obj 772 944 oscilloscope;
#X obj 1214 944 oscilloscope;
#X connect 1 0 27 0;
#X connect 2 0 3 0;
#X connect 2 1 4 0;
#X connect 2 2 4 1;
#X connect 2 3 4 2;
#X connect 2 4 5 0;
#X connect 4 0 29 0;
#X connect 6 0 10 0;
#X connect 7 0 26 0;
#X connect 8 0 9 0;
#X connect 17 0 11 0;
#X connect 17 0 14 0;
#X connect 17 1 12 0;
#X connect 17 1 15 0;
#X connect 17 2 13 0;
#X connect 17 2 16 0;
#X connect 25 0 30 0;
#X connect 25 1 31 0;
#X connect 25 2 32 0;
#X connect 26 0 17 0;
#X connect 27 0 2 0;
#X connect 34 0 35 0;
#X connect 35 0 42 0;
#X connect 35 1 44 0;
#X connect 36 0 42 0;
#X connect 37 0 36 0;
#X connect 38 0 42 0;
#X connect 38 1 44 0;
#X connect 39 0 38 0;
#X connect 40 0 42 0;
#X connect 40 0 44 0;
#X connect 41 0 40 0;
#X connect 42 0 33 0;
#X connect 42 0 57 0;
#X connect 43 0 42 1;
#X connect 44 0 33 1;
#X connect 44 0 58 0;
#X connect 45 0 44 1;
#X connect 46 0 39 0;
#X connect 47 0 37 0;
#X connect 48 0 41 0;
#X connect 49 0 34 0;
#X connect 50 0 44 0;
#X connect 50 0 42 0;
#X connect 51 0 50 0;
#X connect 52 0 51 0;
#X connect 54 0 42 0;
#X connect 54 0 44 0;
#X connect 55 0 54 0;
#X connect 56 0 55 0;
