#N canvas -8 -8 1366 685 10;
#X obj 87 769 dac~;
#X obj 103 640 +~;
#X obj 174 601 +~;
#X obj 284 603 +~;
#X obj 186 674 oscilloscope;
#X obj 37 473 osc~ 523.25;
#X obj 148 470 osc~ 587.33;
#X obj 148 552 *~;
#X obj 391 549 *~;
#X obj 266 552 *~;
#X obj 266 470 osc~ 659.26;
#X obj 391 467 osc~ 698.46;
#X obj 400 600 +~;
#X obj 507 546 *~;
#X obj 507 464 osc~ 784;
#X obj 510 599 +~;
#X obj 622 545 *~;
#X obj 622 463 osc~ 880;
#X obj -191 556 *~;
#X obj -75 556 *~;
#X obj -305 557 *~;
#X obj -305 474 osc~ 392;
#X obj -191 473 osc~ 440;
#X obj -75 473 osc~ 494;
#X obj 19 600 +~;
#X obj -93 599 +~;
#X obj -207 597 +~;
#X obj 57 618 +~;
#X obj 111 316 *~;
#X obj 127 392 +~;
#X obj 240 311 *~;
#X obj 224 345 +~;
#X obj 462 307 *~;
#X obj 449 357 +~;
#X obj -141 319 *~;
#X obj -157 353 +~;
#X obj -255 323 *~;
#X obj -271 357 +~;
#X obj -369 322 *~;
#X obj 1 349 +~;
#X obj 112 182 osc~ 554;
#X obj 241 234 osc~ 622;
#X obj 463 173 osc~ 740;
#X obj 578 172 osc~ 830.6;
#X obj -140 185 osc~ 466;
#X obj -254 189 osc~ 415.3;
#X obj -368 188 osc~ 370;
#X text -258 763 Harry Potter: dhkjhmljhkjyjd;
#X text -258 799 Bismillah: ghjjghghkkjhgghjjghghkjhg;
#X text -262 826 100knights: ghuglkukukug;
#X text -269 854 tetris: jfghgfddgjhgfghjgdd;
#X obj 734 544 *~;
#X obj 626 599 +~;
#X obj 740 598 +~;
#X obj 846 546 *~;
#X obj 734 462 osc~ 987.77;
#X obj 846 464 osc~ 1046.5;
#X obj 692 307 *~;
#X obj 651 351 +~;
#X obj 693 173 osc~ 932.33;
#X text -229 718 Aulos:mlmkjkhyhdhksjldkjkljh;
#X obj 255 291 touche_piano;
#X obj 255 254 loadbang;
#X obj 477 287 touche_piano;
#X obj 477 250 loadbang;
#X obj 593 273 touche_piano;
#X obj 593 236 loadbang;
#X obj 578 295 *~;
#X obj 707 249 loadbang;
#X obj 126 293 touche_piano;
#X obj 126 256 loadbang;
#X obj -126 299 touche_piano;
#X obj -126 261 loadbang;
#X obj -240 300 touche_piano;
#X obj -240 263 loadbang;
#X obj -354 298 touche_piano;
#X obj -354 261 loadbang;
#X obj -290 535 touche_piano;
#X obj -290 498 loadbang;
#X obj -176 535 touche_piano;
#X obj -176 498 loadbang;
#X obj -62 535 touche_piano;
#X obj -62 498 loadbang;
#X obj 54 533 touche_piano;
#X obj 54 496 loadbang;
#X obj 163 531 touche_piano;
#X obj 163 494 loadbang;
#X obj 281 531 touche_piano;
#X obj 281 494 loadbang;
#X obj 404 528 touche_piano;
#X obj 404 491 loadbang;
#X obj 39 556 *~;
#X obj 522 523 touche_piano;
#X obj 522 486 loadbang;
#X obj 636 522 touche_piano;
#X obj 636 485 loadbang;
#X obj 747 521 touche_piano;
#X obj 747 484 loadbang;
#X obj 860 524 touche_piano;
#X obj 860 487 loadbang;
#X obj 97 725 /~;
#X msg 112 706 10;
#X obj 114 686 loadbang;
#X obj 286 18 key;
#X obj 321 48 keyup;
#X floatatom 277 71 5 0 0 0 - - -;
#X floatatom 325 76 5 0 0 0 - - -;
#X obj 707 286 touche_piano;
#X msg 707 268 112;
#X msg 593 255 111;
#X msg 255 273 121;
#X msg 477 269 105;
#X msg 126 275 116;
#X msg -126 280 101;
#X msg -240 282 122;
#X msg -354 280 97;
#X msg 860 506 249;
#X msg 747 503 109;
#X msg 636 504 108;
#X msg 522 506 107;
#X msg 404 510 106;
#X msg 281 513 104;
#X msg 163 513 103;
#X msg 54 515 102;
#X msg -62 517 100;
#X msg -176 517 115;
#X msg -290 517 113;
#X obj 795 304 *~;
#X obj 810 246 loadbang;
#X obj 810 283 touche_piano;
#X obj 732 353 +~;
#X obj 796 170 osc~ 1108;
#X msg 810 265 36;
#X connect 1 0 4 0;
#X connect 1 0 100 0;
#X connect 2 0 1 1;
#X connect 3 0 2 1;
#X connect 5 0 91 0;
#X connect 6 0 7 0;
#X connect 7 0 2 0;
#X connect 8 0 12 0;
#X connect 9 0 3 0;
#X connect 10 0 9 0;
#X connect 11 0 8 0;
#X connect 12 0 3 1;
#X connect 13 0 15 0;
#X connect 14 0 13 0;
#X connect 15 0 12 1;
#X connect 16 0 52 0;
#X connect 17 0 16 0;
#X connect 18 0 26 1;
#X connect 19 0 25 1;
#X connect 20 0 26 0;
#X connect 21 0 20 0;
#X connect 22 0 18 0;
#X connect 23 0 19 0;
#X connect 24 0 27 0;
#X connect 25 0 24 0;
#X connect 26 0 25 0;
#X connect 27 0 1 0;
#X connect 28 0 39 1;
#X connect 29 0 27 1;
#X connect 30 0 31 0;
#X connect 31 0 29 1;
#X connect 32 0 33 0;
#X connect 33 0 31 1;
#X connect 34 0 35 1;
#X connect 35 0 39 0;
#X connect 36 0 37 1;
#X connect 37 0 35 0;
#X connect 38 0 37 0;
#X connect 39 0 29 0;
#X connect 40 0 28 0;
#X connect 41 0 30 0;
#X connect 42 0 32 0;
#X connect 43 0 67 0;
#X connect 44 0 34 0;
#X connect 45 0 36 0;
#X connect 46 0 38 0;
#X connect 51 0 53 0;
#X connect 52 0 15 1;
#X connect 53 0 52 1;
#X connect 54 0 53 1;
#X connect 55 0 51 0;
#X connect 56 0 54 0;
#X connect 57 0 130 0;
#X connect 58 0 33 1;
#X connect 59 0 57 0;
#X connect 61 0 30 1;
#X connect 62 0 110 0;
#X connect 63 0 32 1;
#X connect 64 0 111 0;
#X connect 65 0 67 1;
#X connect 66 0 109 0;
#X connect 67 0 58 0;
#X connect 68 0 108 0;
#X connect 69 0 28 1;
#X connect 70 0 112 0;
#X connect 71 0 34 1;
#X connect 72 0 113 0;
#X connect 73 0 36 1;
#X connect 74 0 114 0;
#X connect 75 0 38 1;
#X connect 76 0 115 0;
#X connect 77 0 20 1;
#X connect 78 0 126 0;
#X connect 79 0 18 1;
#X connect 80 0 125 0;
#X connect 81 0 19 1;
#X connect 82 0 124 0;
#X connect 83 0 91 1;
#X connect 84 0 123 0;
#X connect 85 0 7 1;
#X connect 86 0 122 0;
#X connect 87 0 9 1;
#X connect 88 0 121 0;
#X connect 89 0 8 1;
#X connect 90 0 120 0;
#X connect 91 0 24 1;
#X connect 92 0 13 1;
#X connect 93 0 119 0;
#X connect 94 0 16 1;
#X connect 95 0 118 0;
#X connect 96 0 51 1;
#X connect 97 0 117 0;
#X connect 98 0 54 1;
#X connect 99 0 116 0;
#X connect 100 0 0 0;
#X connect 100 0 0 1;
#X connect 101 0 100 1;
#X connect 102 0 101 0;
#X connect 103 0 105 0;
#X connect 104 0 106 0;
#X connect 107 0 57 1;
#X connect 108 0 107 0;
#X connect 109 0 65 0;
#X connect 110 0 61 0;
#X connect 111 0 63 0;
#X connect 112 0 69 0;
#X connect 113 0 71 0;
#X connect 114 0 73 0;
#X connect 115 0 75 0;
#X connect 116 0 98 0;
#X connect 117 0 96 0;
#X connect 118 0 94 0;
#X connect 119 0 92 0;
#X connect 120 0 89 0;
#X connect 121 0 87 0;
#X connect 122 0 85 0;
#X connect 123 0 83 0;
#X connect 124 0 81 0;
#X connect 125 0 79 0;
#X connect 126 0 77 0;
#X connect 127 0 130 1;
#X connect 128 0 132 0;
#X connect 129 0 127 1;
#X connect 130 0 58 1;
#X connect 131 0 127 0;
#X connect 132 0 129 0;
