#N canvas 723 120 912 696 10;
#X obj 263 853 dac~;
#X obj 155 478 key;
#X floatatom 155 499 5 0 0 0 - - -, f 5;
#X floatatom 204 475 5 0 0 0 - - -, f 5;
#X obj 202 452 keyup;
#X floatatom 183 554 5 0 0 0 - - -, f 5;
#X obj 213 520 expr 0;
#X obj 42 521 == 103;
#X obj 42 479 key;
#X floatatom 42 500 5 0 0 0 - - -, f 5;
#X obj 100 496 == 103;
#X floatatom 91 476 5 0 0 0 - - -, f 5;
#X obj 89 453 keyup;
#X floatatom 70 555 5 0 0 0 - - -, f 5;
#X obj 100 521 expr 0;
#X obj 272 478 key;
#X floatatom 272 499 5 0 0 0 - - -, f 5;
#X floatatom 321 475 5 0 0 0 - - -, f 5;
#X obj 319 452 keyup;
#X floatatom 300 554 5 0 0 0 - - -, f 5;
#X obj 330 520 expr 0;
#X obj 399 475 key;
#X floatatom 399 496 5 0 0 0 - - -, f 5;
#X floatatom 448 472 5 0 0 0 - - -, f 5;
#X obj 446 449 keyup;
#X floatatom 427 551 5 0 0 0 - - -, f 5;
#X obj 457 517 expr 0;
#X obj 155 520 == 104;
#X obj 213 495 == 104;
#X obj 272 520 == 106;
#X obj 330 495 == 106;
#X obj 399 517 == 107;
#X obj 457 492 == 107;
#X obj 103 640 +~;
#X obj 174 601 +~;
#X obj 284 603 +~;
#X obj 2 924 oscilloscope;
#X obj 35 566 *~;
#X obj 36 432 osc~ 523.25;
#X obj 147 429 osc~ 587.33;
#X obj 148 552 *~;
#X obj 391 549 *~;
#X obj 266 552 *~;
#X obj 265 429 osc~ 659.26;
#X obj 390 426 osc~ 698.46;
#X obj 515 472 key;
#X floatatom 515 493 5 0 0 0 - - -, f 5;
#X floatatom 564 469 5 0 0 0 - - -, f 5;
#X obj 562 446 keyup;
#X floatatom 543 548 5 0 0 0 - - -, f 5;
#X obj 573 514 expr 0;
#X obj 400 600 +~;
#X obj 507 546 *~;
#X obj 573 489 == 108;
#X obj 516 514 == 108;
#X obj 506 423 osc~ 784;
#X obj 630 471 key;
#X floatatom 630 492 5 0 0 0 - - -, f 5;
#X floatatom 679 468 5 0 0 0 - - -, f 5;
#X obj 677 445 keyup;
#X floatatom 658 547 5 0 0 0 - - -, f 5;
#X obj 688 513 expr 0;
#X obj 510 599 +~;
#X obj 622 545 *~;
#X obj 688 488 == 109;
#X obj 632 513 == 109;
#X obj 621 422 osc~ 880;
#X obj -186 479 key;
#X floatatom -186 500 5 0 0 0 - - -, f 5;
#X floatatom -137 476 5 0 0 0 - - -, f 5;
#X obj -139 453 keyup;
#X floatatom -158 555 5 0 0 0 - - -, f 5;
#X obj -128 521 expr 0;
#X obj -193 566 *~;
#X obj -70 479 key;
#X floatatom -70 500 5 0 0 0 - - -, f 5;
#X floatatom -21 476 5 0 0 0 - - -, f 5;
#X obj -23 453 keyup;
#X floatatom -42 555 5 0 0 0 - - -, f 5;
#X obj -12 521 expr 0;
#X obj -77 566 *~;
#X obj -300 480 key;
#X floatatom -300 501 5 0 0 0 - - -, f 5;
#X floatatom -251 477 5 0 0 0 - - -, f 5;
#X obj -253 454 keyup;
#X floatatom -272 556 5 0 0 0 - - -, f 5;
#X obj -242 522 expr 0;
#X obj -307 567 *~;
#X obj -414 479 key;
#X floatatom -414 500 5 0 0 0 - - -, f 5;
#X floatatom -365 476 5 0 0 0 - - -, f 5;
#X obj -367 453 keyup;
#X floatatom -386 555 5 0 0 0 - - -, f 5;
#X obj -356 521 expr 0;
#X obj -421 566 *~;
#X obj -414 521 == 113;
#X obj -356 496 == 113;
#X obj -420 432 osc~ 349;
#X obj -300 522 == 115;
#X obj -242 497 == 115;
#X obj -306 433 osc~ 392;
#X obj -192 432 osc~ 440;
#X obj -128 496 == 100;
#X obj -186 521 == 100;
#X obj -76 432 osc~ 494;
#X obj -12 496 == 102;
#X obj -70 521 == 102;
#X obj 19 600 +~;
#X obj -93 599 +~;
#X obj -207 597 +~;
#X obj -326 592 +~;
#X obj 57 618 +~;
#X obj 118 229 key;
#X floatatom 118 250 5 0 0 0 - - -, f 5;
#X floatatom 167 226 5 0 0 0 - - -, f 5;
#X obj 165 203 keyup;
#X floatatom 146 305 5 0 0 0 - - -, f 5;
#X obj 176 271 expr 0;
#X obj 111 316 *~;
#X obj 127 392 +~;
#X obj 247 224 key;
#X floatatom 247 245 5 0 0 0 - - -, f 5;
#X floatatom 296 221 5 0 0 0 - - -, f 5;
#X obj 294 198 keyup;
#X floatatom 275 300 5 0 0 0 - - -, f 5;
#X obj 305 266 expr 0;
#X obj 240 311 *~;
#X obj 224 345 +~;
#X obj 469 220 key;
#X floatatom 469 241 5 0 0 0 - - -, f 5;
#X floatatom 518 217 5 0 0 0 - - -, f 5;
#X obj 516 194 keyup;
#X floatatom 497 296 5 0 0 0 - - -, f 5;
#X obj 527 262 expr 0;
#X obj 462 307 *~;
#X obj 449 357 +~;
#X obj 584 219 key;
#X floatatom 584 240 5 0 0 0 - - -, f 5;
#X floatatom 633 216 5 0 0 0 - - -, f 5;
#X obj 631 193 keyup;
#X floatatom 612 295 5 0 0 0 - - -, f 5;
#X obj 642 261 expr 0;
#X obj 575 324 *~;
#X obj -134 232 key;
#X floatatom -134 253 5 0 0 0 - - -, f 5;
#X floatatom -85 229 5 0 0 0 - - -, f 5;
#X obj -87 206 keyup;
#X floatatom -106 308 5 0 0 0 - - -, f 5;
#X obj -141 319 *~;
#X obj -157 353 +~;
#X obj -248 236 key;
#X floatatom -248 257 5 0 0 0 - - -, f 5;
#X floatatom -199 233 5 0 0 0 - - -, f 5;
#X obj -201 210 keyup;
#X floatatom -220 312 5 0 0 0 - - -, f 5;
#X obj -190 278 expr 0;
#X obj -255 323 *~;
#X obj -271 357 +~;
#X obj -362 235 key;
#X floatatom -362 256 5 0 0 0 - - -, f 5;
#X floatatom -313 232 5 0 0 0 - - -, f 5;
#X obj -315 209 keyup;
#X floatatom -334 311 5 0 0 0 - - -, f 5;
#X obj -304 277 expr 0;
#X obj -369 322 *~;
#X obj 1 349 +~;
#X obj 176 246 == 121;
#X obj 119 271 == 121;
#X obj 112 182 osc~ 554;
#X obj 305 241 == 117;
#X obj 247 266 == 117;
#X obj 241 177 osc~ 622;
#X obj 463 173 osc~ 740;
#X obj 527 237 == 111;
#X obj 469 262 == 111;
#X obj 642 236 == 112;
#X obj 584 261 == 112;
#X obj 578 172 osc~ 830.6;
#X obj -76 249 == 114;
#X obj -134 274 == 114;
#X obj -140 185 osc~ 466;
#X obj -190 253 == 101;
#X obj -248 278 == 101;
#X obj -254 189 osc~ 415.3;
#X obj -304 252 == 122;
#X obj -362 277 == 122;
#X obj -368 188 osc~ 370;
#X obj -76 274 expr 0;
#X text -267 754 Harry Potter: dhkjhmljhkjyjd;
#X text -266 772 Bismillah: ghjjghghkkjhgghjjghghkjhg;
#X text -265 788 100knights: ghuglkukukug;
#X text -265 805 tetris: jfghgfddgjhgfghjgdd;
#X obj 742 470 key;
#X floatatom 742 491 5 0 0 0 - - -, f 5;
#X floatatom 791 467 5 0 0 0 - - -, f 5;
#X obj 789 444 keyup;
#X floatatom 770 546 5 0 0 0 - - -, f 5;
#X obj 800 512 expr 0;
#X obj 734 544 *~;
#X obj 626 599 +~;
#X obj 740 598 +~;
#X obj 854 472 key;
#X floatatom 854 493 5 0 0 0 - - -, f 5;
#X floatatom 903 469 5 0 0 0 - - -, f 5;
#X obj 901 446 keyup;
#X floatatom 882 548 5 0 0 0 - - -, f 5;
#X obj 912 514 expr 0;
#X obj 846 546 *~;
#X obj 800 487 == 249;
#X obj 744 512 == 249;
#X obj 912 489 == 42;
#X obj 856 514 == 42;
#X obj 733 421 osc~ 987.77;
#X obj 845 423 osc~ 1046.5;
#X obj 699 220 key;
#X floatatom 699 241 5 0 0 0 - - -, f 5;
#X floatatom 748 217 5 0 0 0 - - -, f 5;
#X obj 746 194 keyup;
#X floatatom 727 296 5 0 0 0 - - -, f 5;
#X obj 757 262 expr 0;
#X obj 692 307 *~;
#X obj 757 237 == 94;
#X obj 699 262 == 94;
#X obj 651 351 +~;
#X obj 693 173 osc~ 932.33;
#X text -268 738 Katyusha: hjkhkkjhjdjkljllkjhhmlmlkjhjdkhjhdkjh;
#X text -271 715 I m blue :usgukrhugulplkusguhqrg;
#X obj 629 776 rev1~;
#X obj 661 734 loadbang;
#X msg 661 754 50;
#X obj 585 817 mix~;
#X obj 702 784 hsl 128 15 0 1 0 0 empty empty empty -2 -8 0 10 -262144
-1 -1 0 1;
#X connect 1 0 2 0;
#X connect 2 0 27 0;
#X connect 3 0 28 0;
#X connect 4 0 3 0;
#X connect 5 0 40 1;
#X connect 6 0 5 0;
#X connect 7 0 13 0;
#X connect 8 0 9 0;
#X connect 9 0 7 0;
#X connect 10 0 14 0;
#X connect 11 0 10 0;
#X connect 12 0 11 0;
#X connect 13 0 37 1;
#X connect 14 0 13 0;
#X connect 15 0 16 0;
#X connect 16 0 29 0;
#X connect 17 0 30 0;
#X connect 18 0 17 0;
#X connect 19 0 42 1;
#X connect 20 0 19 0;
#X connect 21 0 22 0;
#X connect 22 0 31 0;
#X connect 23 0 32 0;
#X connect 24 0 23 0;
#X connect 25 0 41 1;
#X connect 26 0 25 0;
#X connect 27 0 5 0;
#X connect 28 0 6 0;
#X connect 29 0 19 0;
#X connect 30 0 20 0;
#X connect 31 0 25 0;
#X connect 32 0 26 0;
#X connect 33 0 36 0;
#X connect 33 0 227 0;
#X connect 33 0 230 0;
#X connect 34 0 33 1;
#X connect 35 0 34 1;
#X connect 37 0 107 1;
#X connect 38 0 37 0;
#X connect 39 0 40 0;
#X connect 40 0 34 0;
#X connect 41 0 51 0;
#X connect 42 0 35 0;
#X connect 43 0 42 0;
#X connect 44 0 41 0;
#X connect 45 0 46 0;
#X connect 46 0 54 0;
#X connect 47 0 53 0;
#X connect 48 0 47 0;
#X connect 49 0 52 1;
#X connect 50 0 49 0;
#X connect 51 0 35 1;
#X connect 52 0 62 0;
#X connect 53 0 50 0;
#X connect 54 0 49 0;
#X connect 55 0 52 0;
#X connect 56 0 57 0;
#X connect 57 0 65 0;
#X connect 58 0 64 0;
#X connect 59 0 58 0;
#X connect 60 0 63 1;
#X connect 61 0 60 0;
#X connect 62 0 51 1;
#X connect 63 0 199 0;
#X connect 64 0 61 0;
#X connect 65 0 60 0;
#X connect 66 0 63 0;
#X connect 67 0 68 0;
#X connect 68 0 103 0;
#X connect 69 0 102 0;
#X connect 70 0 69 0;
#X connect 71 0 73 1;
#X connect 72 0 71 0;
#X connect 73 0 109 1;
#X connect 74 0 75 0;
#X connect 75 0 106 0;
#X connect 76 0 105 0;
#X connect 77 0 76 0;
#X connect 78 0 80 1;
#X connect 79 0 78 0;
#X connect 80 0 108 1;
#X connect 81 0 82 0;
#X connect 82 0 98 0;
#X connect 83 0 99 0;
#X connect 84 0 83 0;
#X connect 85 0 87 1;
#X connect 86 0 85 0;
#X connect 87 0 110 1;
#X connect 88 0 89 0;
#X connect 89 0 95 0;
#X connect 90 0 96 0;
#X connect 91 0 90 0;
#X connect 92 0 94 1;
#X connect 93 0 92 0;
#X connect 94 0 110 0;
#X connect 95 0 92 0;
#X connect 96 0 93 0;
#X connect 97 0 94 0;
#X connect 98 0 85 0;
#X connect 99 0 86 0;
#X connect 100 0 87 0;
#X connect 101 0 73 0;
#X connect 102 0 72 0;
#X connect 103 0 71 0;
#X connect 104 0 80 0;
#X connect 105 0 79 0;
#X connect 106 0 78 0;
#X connect 107 0 111 0;
#X connect 108 0 107 0;
#X connect 109 0 108 0;
#X connect 110 0 109 0;
#X connect 111 0 33 0;
#X connect 112 0 113 0;
#X connect 113 0 167 0;
#X connect 114 0 166 0;
#X connect 115 0 114 0;
#X connect 116 0 118 1;
#X connect 117 0 116 0;
#X connect 118 0 165 1;
#X connect 119 0 111 1;
#X connect 120 0 121 0;
#X connect 121 0 170 0;
#X connect 122 0 169 0;
#X connect 123 0 122 0;
#X connect 124 0 126 1;
#X connect 125 0 124 0;
#X connect 126 0 127 0;
#X connect 127 0 119 1;
#X connect 128 0 129 0;
#X connect 129 0 174 0;
#X connect 130 0 173 0;
#X connect 131 0 130 0;
#X connect 132 0 134 1;
#X connect 133 0 132 0;
#X connect 134 0 135 0;
#X connect 135 0 127 1;
#X connect 136 0 137 0;
#X connect 137 0 176 0;
#X connect 138 0 175 0;
#X connect 139 0 138 0;
#X connect 140 0 142 1;
#X connect 141 0 140 0;
#X connect 142 0 223 0;
#X connect 143 0 144 0;
#X connect 144 0 179 0;
#X connect 145 0 178 0;
#X connect 146 0 145 0;
#X connect 147 0 148 1;
#X connect 148 0 149 1;
#X connect 149 0 165 0;
#X connect 150 0 151 0;
#X connect 151 0 182 0;
#X connect 152 0 181 0;
#X connect 153 0 152 0;
#X connect 154 0 156 1;
#X connect 155 0 154 0;
#X connect 156 0 157 1;
#X connect 157 0 149 0;
#X connect 158 0 159 0;
#X connect 159 0 185 0;
#X connect 160 0 184 0;
#X connect 161 0 160 0;
#X connect 162 0 164 1;
#X connect 163 0 162 0;
#X connect 164 0 157 0;
#X connect 165 0 119 0;
#X connect 166 0 117 0;
#X connect 167 0 116 0;
#X connect 168 0 118 0;
#X connect 169 0 125 0;
#X connect 170 0 124 0;
#X connect 171 0 126 0;
#X connect 172 0 134 0;
#X connect 173 0 133 0;
#X connect 174 0 132 0;
#X connect 175 0 141 0;
#X connect 176 0 140 0;
#X connect 177 0 142 0;
#X connect 178 0 187 0;
#X connect 179 0 147 0;
#X connect 180 0 148 0;
#X connect 181 0 155 0;
#X connect 182 0 154 0;
#X connect 183 0 156 0;
#X connect 184 0 163 0;
#X connect 185 0 162 0;
#X connect 186 0 164 0;
#X connect 187 0 147 0;
#X connect 192 0 193 0;
#X connect 193 0 209 0;
#X connect 194 0 208 0;
#X connect 195 0 194 0;
#X connect 196 0 198 1;
#X connect 197 0 196 0;
#X connect 198 0 200 0;
#X connect 199 0 62 1;
#X connect 200 0 199 1;
#X connect 201 0 202 0;
#X connect 202 0 211 0;
#X connect 203 0 210 0;
#X connect 204 0 203 0;
#X connect 205 0 207 1;
#X connect 206 0 205 0;
#X connect 207 0 200 1;
#X connect 208 0 197 0;
#X connect 209 0 196 0;
#X connect 210 0 206 0;
#X connect 211 0 205 0;
#X connect 212 0 198 0;
#X connect 213 0 207 0;
#X connect 214 0 215 0;
#X connect 215 0 222 0;
#X connect 216 0 221 0;
#X connect 217 0 216 0;
#X connect 218 0 220 1;
#X connect 219 0 218 0;
#X connect 220 0 223 1;
#X connect 221 0 219 0;
#X connect 222 0 218 0;
#X connect 223 0 135 1;
#X connect 224 0 220 0;
#X connect 227 0 230 1;
#X connect 228 0 229 0;
#X connect 229 0 227 1;
#X connect 230 0 0 1;
#X connect 230 0 0 0;
#X connect 231 0 230 2;
