#N canvas 0 50 450 300 10;
#X obj 91 145 max;
#X obj 91 79 key;
#X floatatom 91 103 5 0 0 0 - - -;
#X floatatom 121 169 5 0 0 0 - - -;
#X floatatom 135 83 5 0 0 0 - - -;
#X obj 135 41 keyup;
#X obj 135 123 expr 1-$f1;
#X obj 135 145 min;
#X obj 135 102 ==;
#X obj 91 123 ==;
#X obj 107 13 inlet;
#X obj 119 249 outlet;
#X obj 159 211 bng 15 250 50 0 empty empty empty 17 7 0 10 -262144
-1 -1;
#X connect 0 0 3 0;
#X connect 1 0 2 0;
#X connect 2 0 9 0;
#X connect 3 0 0 1;
#X connect 3 0 7 1;
#X connect 3 0 11 0;
#X connect 3 0 12 0;
#X connect 4 0 8 0;
#X connect 5 0 4 0;
#X connect 6 0 7 0;
#X connect 7 0 3 0;
#X connect 8 0 6 0;
#X connect 9 0 0 0;
#X connect 10 0 8 1;
#X connect 10 0 9 1;
